<?xml version="1.0" encoding="iso-8859-1"?>
<!-- Generator: Adobe Illustrator 19.0.0, SVG Export Plug-In . SVG Version: 6.00 Build 0)  -->
<svg version="1.1" id="Layer_1" xmlns="http://www.w3.org/2000/svg" xmlns:xlink="http://www.w3.org/1999/xlink" x="0px" y="0px"
	 viewBox="0 0 511.998 511.998" style="enable-background:new 0 0 511.998 511.998;" xml:space="preserve">
<g>
	
		<rect x="119.482" y="236.475" transform="matrix(0.2215 -0.9752 0.9752 0.2215 -207.7676 370.2627)" style="fill:#6D4C41;" width="17.071" height="157.569"/>
	
		<rect x="305.297" y="306.799" transform="matrix(0.9751 -0.2217 0.2217 0.9751 -60.3525 93.0003)" style="fill:#6D4C41;" width="157.576" height="17.072"/>
</g>
<g>
	<path style="fill:#8D6E63;" d="M238.927,119.334v34.145h-1.195c-80.283,7.059-149.69,58.874-179.26,133.847
		c-2.672,6.402-8.946,10.551-15.877,10.499h-8.536c-14.144,0-25.609-11.464-25.609-25.609c0-14.144,11.464-25.609,25.609-25.609
		c1.835-0.017,3.671,0.188,5.463,0.598c39.668-73.053,113.488-121.197,196.332-128.043"/>
	<path style="fill:#8D6E63;" d="M273.071,119.334v34.145h1.195c80.283,7.059,149.69,58.874,179.26,133.847
		c2.672,6.402,8.946,10.551,15.877,10.499h8.536c14.144,0,25.609-11.464,25.609-25.609c0-14.144-11.464-25.609-25.609-25.609
		c-1.835-0.017-3.671,0.188-5.463,0.598c-39.668-73.053-113.488-121.197-196.332-128.043"/>
</g>
<path d="M42.594,306.361h-8.536c-18.856-0.213-33.974-15.672-33.761-34.529c0.213-18.856,15.672-33.974,34.529-33.761
	c41.742-73.027,116.912-120.684,200.771-127.274l0.683,8.536h11.182v42.083l-9.134,0.598
	c-76.911,6.837-143.442,56.339-172.089,128.043C62.432,299.814,53.068,306.276,42.594,306.361z M34.058,255.144
	c-9.432,0-17.072,7.64-17.072,17.072c0,9.432,7.64,17.072,17.072,17.072h8.536c3.389,0.026,6.462-1.946,7.853-5.036
	c30.15-75.605,99.148-128.726,179.943-138.542v-17.072c-77.568,8.272-146.114,54.128-183.357,122.665l-3.158,5.719l-6.317-1.11
	C36.423,255.511,35.253,255.255,34.058,255.144z"/>
<path d="M477.94,306.361h-8.536c-10.38,0.034-19.753-6.206-23.731-15.792c-28.502-71.9-95.059-121.623-172.089-128.555l-9.048-0.598
	v-42.083h11.182l0.683-8.536c83.859,6.59,159.029,54.247,200.771,127.274c18.856-0.213,34.315,14.904,34.529,33.761
	C511.914,290.689,496.796,306.148,477.94,306.361z M281.607,145.71c80.829,9.782,149.87,62.912,180.028,138.542
	c1.391,3.09,4.464,5.062,7.853,5.036h8.536c9.432,0,17.072-7.64,17.072-17.072c0-9.432-7.64-17.072-17.072-17.072
	c-1.161-0.137-2.339-0.137-3.5,0l-6.317,1.537l-3.158-5.719c-37.303-68.494-105.883-114.291-183.443-122.494L281.607,145.71
	L281.607,145.71z"/>
<g>
	<path style="fill:#6D4C41;" d="M213.318,272.985h25.609v169.529c0.64,4.712-2.672,9.048-7.384,9.689
		c-4.712,0.64-9.048-2.672-9.689-7.384l0,0l-17.072-60.863V281.521C204.782,276.8,208.606,272.985,213.318,272.985z"/>
	<path style="fill:#6D4C41;" d="M307.216,281.521v102.434l-17.072,60.863c-0.64,4.712-4.977,8.024-9.689,7.384
		c-4.712-0.64-8.024-4.977-7.384-9.689V272.985h25.609C303.392,272.985,307.216,276.8,307.216,281.521z"/>
</g>
<path d="M230.39,459.586c-7.546-0.085-14.144-5.122-16.219-12.377l-17.072-60.948c-0.393-0.726-0.683-1.502-0.854-2.305V281.521
	c0-9.432,7.64-17.072,17.072-17.072h25.609c4.712,0,8.536,3.824,8.536,8.536v169.529c0.085,8.57-6.197,15.877-14.682,17.072H230.39z
	 M213.318,382.76l17.072,59.753V281.521h-17.072V382.76z"/>
<path d="M281.607,459.586h-2.561c-8.485-1.195-14.768-8.502-14.682-17.072V272.985c0-4.712,3.824-8.536,8.536-8.536h25.609
	c9.432,0,17.072,7.64,17.072,17.072v102.434c0.102,0.768,0.102,1.537,0,2.305l-17.072,60.863
	C296.401,454.66,289.435,459.799,281.607,459.586z M281.607,281.521v160.992l17.072-59.753V281.521H281.607z"/>
<path style="fill:#A8A5A4;" d="M294.326,89.542l-21.255,21.255v384.128c0,4.712-3.824,8.536-8.536,8.536h-17.072
	c-4.712,0-8.536-3.824-8.536-8.536V110.797l-21.255-21.255c-2.552-2.569-3.201-6.47-1.622-9.731l32.523-67.009
	c2.322-4.097,7.537-5.54,11.635-3.218c1.34,0.76,2.458,1.878,3.218,3.218l32.523,67.009
	C297.527,83.072,296.879,86.973,294.326,89.542z"/>
<path style="fill:#BDBDBD;" d="M284.68,99.188l-11.609,11.609v384.128c0,4.712-3.824,8.536-8.536,8.536h-17.072
	c-4.712,0-8.536-3.824-8.536-8.536V110.797l-11.609-11.609l21.255-43.705c2.322-4.097,7.537-5.54,11.635-3.218
	c1.34,0.76,2.458,1.878,3.218,3.218L284.68,99.188z"/>
<path d="M264.535,511.998h-17.072c-9.432,0-17.072-7.64-17.072-17.072V114.297l-18.694-18.694
	c-5.139-5.156-6.445-13.009-3.244-19.548L240.89,9.046c4.43-8.323,14.776-11.473,23.099-7.034c2.996,1.596,5.446,4.046,7.034,7.034
	l32.694,67.436c3.201,6.539,1.895,14.392-3.244,19.548l0,0l-18.865,18.267v380.628C281.607,504.349,273.959,511.998,264.535,511.998
	z M255.999,16.899l-32.267,66.668l21.255,21.255c1.579,1.588,2.467,3.739,2.476,5.975v384.128h17.072V110.797
	c-0.017-2.271,0.879-4.447,2.475-6.061l21.255-21.255l0,0L255.999,16.899z"/>
<g>
</g>
<g>
</g>
<g>
</g>
<g>
</g>
<g>
</g>
<g>
</g>
<g>
</g>
<g>
</g>
<g>
</g>
<g>
</g>
<g>
</g>
<g>
</g>
<g>
</g>
<g>
</g>
<g>
</g>
</svg>
