<?xml version="1.0" encoding="utf-8"?>
<!-- Generator: Adobe Illustrator 15.1.0, SVG Export Plug-In . SVG Version: 6.00 Build 0)  -->
<!DOCTYPE svg PUBLIC "-//W3C//DTD SVG 1.1//EN" "http://www.w3.org/Graphics/SVG/1.1/DTD/svg11.dtd">
<svg version="1.1" id="Layer_1" xmlns="http://www.w3.org/2000/svg" xmlns:xlink="http://www.w3.org/1999/xlink" x="0px" y="0px"
	 width="135px" height="51px" viewBox="-8 -10 135 51" enable-background="new -8 -10 135 51" xml:space="preserve">
<path fill="#182F57" d="M20.582,0C9.237,0,0,9.237,0,20.583C0,31.93,9.237,41.166,20.582,41.166
	c11.348,0,20.583-9.236,20.583-20.583C41.166,9.237,31.93,0,20.582,0L20.582,0z M20.582,36.905c-8.999,0-16.321-7.323-16.321-16.322
	c0-9,7.323-16.322,16.321-16.322c9,0,16.322,7.323,16.322,16.322C36.905,29.582,29.582,36.905,20.582,36.905L20.582,36.905z"/>
<path fill="#182F57" d="M24.097,19.427c-0.996-0.554-2.05-0.963-3.097-1.396c-0.604-0.247-1.182-0.544-1.693-0.953
	c-1.003-0.808-0.816-2.109,0.366-2.628c0.332-0.145,0.68-0.196,1.038-0.213c1.369-0.077,2.662,0.178,3.904,0.773
	c0.612,0.298,0.817,0.204,1.029-0.434c0.222-0.681,0.408-1.369,0.604-2.049c0.136-0.46-0.034-0.766-0.468-0.953
	c-0.791-0.348-1.608-0.604-2.467-0.731c-1.114-0.179-1.114-0.179-1.123-1.3c-0.009-1.591-0.009-1.591-1.589-1.583
	c-0.231,0-0.46-0.008-0.689,0c-0.741,0.026-0.868,0.154-0.885,0.893c-0.01,0.331,0,0.672,0,1.003
	c-0.01,0.995-0.01,0.979-0.962,1.319c-2.296,0.833-3.716,2.399-3.87,4.908c-0.136,2.221,1.021,3.717,2.84,4.805
	c1.124,0.672,2.365,1.071,3.555,1.6c0.468,0.203,0.91,0.439,1.294,0.765c1.148,0.944,0.936,2.517-0.425,3.113
	c-0.732,0.315-1.497,0.397-2.279,0.297c-1.216-0.154-2.381-0.468-3.47-1.039c-0.637-0.331-0.825-0.246-1.046,0.452
	c-0.187,0.604-0.357,1.208-0.519,1.812C13.923,28.704,14,28.9,14.783,29.273c0.987,0.477,2.049,0.725,3.13,0.902
	c0.842,0.137,0.876,0.17,0.885,1.047c0,0.398,0.009,0.799,0.009,1.189c0.008,0.501,0.246,0.792,0.765,0.8
	c0.587,0.008,1.174,0.008,1.76,0c0.476-0.01,0.724-0.272,0.731-0.757c0-0.545,0.026-1.089,0.009-1.635
	c-0.026-0.553,0.212-0.834,0.749-0.978c1.225-0.331,2.271-0.995,3.08-1.973C28.109,25.15,27.26,21.18,24.097,19.427L24.097,19.427z"
	/>
<path fill="#182F57" d="M56.284,8.681c-0.875-0.657-1.881-0.876-2.994-0.876c-0.877,0-1.736,0.273-1.736,0.95
	c0,0.877,0.858,1.004,2.119,1.132c2.539,0.274,5.187,1.297,5.187,4.237c0,2.904-2.74,4.146-5.606,4.165
	c-2.3,0.018-3.944-0.383-5.715-2.247l1.99-2.283c1.26,1.224,2.666,1.442,3.744,1.442c1.187,0,2.009-0.42,2.009-1.133
	c0-0.639-0.729-1.041-2.137-1.168c-2.794-0.256-5.205-0.969-5.205-4.146c0-2.702,2.648-3.872,5.351-3.872
	c1.917,0,3.415,0.438,4.785,1.516L56.284,8.681z"/>
<path fill="#182F57" d="M71.078,15.821h-5.717l-0.84,2.101h-3.833l5.734-12.784h3.651l5.718,12.784h-3.873L71.078,15.821z
	 M68.229,8.717l-1.644,4.073h3.269L68.229,8.717z"/>
<path fill="#182F57" d="M84.941,17.976h-3.524L76.102,5.137h4l1.461,3.835l1.605,4.729l1.625-4.729l1.461-3.835h4L84.941,17.976z"/>
<path fill="#182F57" d="M103.368,17.922H93.141V5.137h9.971v3.032h-6.407v1.826h6.045v2.941h-6.045v1.936h6.666L103.368,17.922
	L103.368,17.922z"/>
<path fill="#182F57" d="M59.096,31.994l-3.269,3.871h-0.64l-3.196-3.854v7.6h-3.58V26.826h3.781l3.361,4.33l3.361-4.33h3.762v12.783
	h-3.579L59.096,31.994L59.096,31.994z"/>
<path fill="#182F57" d="M73.488,39.921c-4.182,0-7.104-2.43-7.104-6.702c0-4.199,2.922-6.703,7.104-6.703
	c4.201,0,7.105,2.447,7.105,6.703C80.593,37.491,77.689,39.921,73.488,39.921z M73.488,29.604c-2.062,0-3.487,1.496-3.487,3.615
	c0,2.137,1.442,3.615,3.487,3.615c2.119,0,3.488-1.498,3.488-3.615C76.979,31.025,75.607,29.604,73.488,29.604z"/>
<path fill="#182F57" d="M92.775,33.82c-0.092-1.533-0.092-2.118-0.109-2.61v-4.384h3.636v12.783h-3.067L87.9,32.725l0.055,2.795
	v4.092h-3.652V26.826h3.069L92.775,33.82z"/>
<path fill="#182F57" d="M110.948,39.609h-10.228V26.826h9.971v3.031h-6.408v1.828h6.045v2.938h-6.045v1.937h6.666L110.948,39.609
	L110.948,39.609z"/>
<path fill="#182F57" d="M120.137,31.21l2.756-4.384h4.072v0.164l-5.076,7.525v5.096h-3.615v-5.096l-4.858-7.543v-0.146h4.071
	L120.137,31.21z"/>
</svg>
