<?xml version="1.0" encoding="utf-8"?>
<!-- Generator: Adobe Illustrator 15.1.0, SVG Export Plug-In  -->
<!DOCTYPE svg PUBLIC "-//W3C//DTD SVG 1.1//EN" "http://www.w3.org/Graphics/SVG/1.1/DTD/svg11.dtd" [
	<!ENTITY ns_flows "http://ns.adobe.com/Flows/1.0/">
]>
<svg version="1.1"
	 xmlns="http://www.w3.org/2000/svg" xmlns:xlink="http://www.w3.org/1999/xlink" xmlns:a="http://ns.adobe.com/AdobeSVGViewerExtensions/3.0/"
	 x="0px" y="0px" width="175px" height="57px" viewBox="0 0 175 57" overflow="visible" enable-background="new 0 0 175 57"
	 xml:space="preserve">
<defs>
</defs>
<path fill="#182F57" d="M28.298,0C12.7,0,0,12.7,0,28.299c0,15.599,12.7,28.298,28.298,28.298c15.601,0,28.298-12.699,28.298-28.298
	C56.597,12.7,43.899,0,28.298,0L28.298,0z M28.298,50.74c-12.372,0-22.44-10.069-22.44-22.441c0-12.373,10.069-22.441,22.44-22.441
	c12.373,0,22.441,10.069,22.441,22.441C50.74,40.671,40.671,50.74,28.298,50.74L28.298,50.74z"/>
<path fill="#182F57" d="M33.13,26.709c-1.369-0.761-2.819-1.323-4.258-1.919c-0.831-0.339-1.625-0.748-2.327-1.31
	c-1.38-1.111-1.122-2.899,0.503-3.613c0.456-0.199,0.935-0.27,1.426-0.293c1.883-0.105,3.66,0.246,5.368,1.064
	c0.841,0.41,1.123,0.28,1.415-0.596c0.305-0.936,0.561-1.883,0.831-2.818c0.187-0.632-0.047-1.053-0.643-1.31
	c-1.088-0.479-2.211-0.831-3.392-1.006c-1.531-0.246-1.531-0.246-1.543-1.788c-0.013-2.187-0.013-2.187-2.186-2.176
	c-0.317,0-0.632-0.011-0.947,0c-1.019,0.036-1.194,0.211-1.217,1.228c-0.013,0.455,0,0.924,0,1.379
	c-0.013,1.368-0.013,1.345-1.322,1.813c-3.157,1.146-5.11,3.298-5.321,6.748c-0.187,3.053,1.404,5.11,3.905,6.607
	c1.545,0.923,3.251,1.473,4.888,2.199c0.643,0.28,1.251,0.606,1.779,1.052c1.579,1.297,1.286,3.46-0.585,4.28
	c-1.006,0.433-2.058,0.548-3.134,0.409c-1.672-0.212-3.274-0.644-4.771-1.429c-0.875-0.454-1.134-0.338-1.438,0.621
	c-0.257,0.831-0.491,1.661-0.713,2.492c-0.305,1.122-0.199,1.392,0.877,1.906c1.357,0.654,2.817,0.994,4.304,1.24
	c1.157,0.187,1.204,0.233,1.216,1.438c0,0.549,0.013,1.099,0.013,1.637c0.011,0.689,0.339,1.088,1.052,1.099
	c0.807,0.012,1.614,0.012,2.42,0c0.655-0.012,0.995-0.374,1.006-1.04c0-0.749,0.036-1.497,0.012-2.246
	c-0.036-0.76,0.292-1.146,1.029-1.345c1.684-0.455,3.123-1.368,4.234-2.712C38.647,34.58,37.479,29.119,33.13,26.709L33.13,26.709z"
	/>
<path fill="#182F57" d="M77.383,11.935c-1.204-0.904-2.586-1.205-4.117-1.205c-1.206,0-2.386,0.376-2.386,1.306
	c0,1.206,1.18,1.381,2.913,1.557c3.49,0.377,7.131,1.783,7.131,5.825c0,3.993-3.767,5.7-7.708,5.726
	c-3.163,0.025-5.423-0.527-7.858-3.089l2.736-3.139c1.733,1.682,3.666,1.983,5.148,1.983c1.632,0,2.762-0.578,2.762-1.557
	c0-0.879-1.003-1.431-2.938-1.607c-3.842-0.352-7.156-1.332-7.156-5.701c0-3.715,3.641-5.323,7.357-5.323
	c2.636,0,4.695,0.603,6.578,2.084L77.383,11.935z"/>
<path fill="#182F57" d="M97.723,21.752h-7.859l-1.156,2.888h-5.272L91.32,7.064h5.021l7.861,17.576h-5.324L97.723,21.752z
	 M93.807,11.985l-2.26,5.6h4.495L93.807,11.985z"/>
<path fill="#182F57" d="M116.783,24.715h-4.846l-7.308-17.652h5.499l2.009,5.273l2.208,6.502l2.235-6.502l2.01-5.273h5.499
	L116.783,24.715z"/>
<path fill="#182F57" d="M142.118,24.64h-14.061V7.063h13.709v4.168h-8.812v2.511h8.312v4.043h-8.312v2.662h9.165L142.118,24.64
	L142.118,24.64z"/>
<path fill="#182F57" d="M81.25,43.988l-4.495,5.323h-0.879l-4.395-5.298V54.46h-4.921V36.882h5.198l4.621,5.952L81,36.882h5.172
	v17.576h-4.921L81.25,43.988L81.25,43.988z"/>
<path fill="#182F57" d="M101.038,54.886c-5.75,0-9.767-3.34-9.767-9.215c0-5.775,4.017-9.215,9.767-9.215
	c5.775,0,9.768,3.365,9.768,9.215C110.805,51.546,106.812,54.886,101.038,54.886z M101.038,40.699c-2.836,0-4.795,2.059-4.795,4.972
	c0,2.938,1.983,4.972,4.795,4.972c2.913,0,4.796-2.06,4.796-4.972C105.834,42.656,103.95,40.699,101.038,40.699z"/>
<path fill="#182F57" d="M127.555,46.499c-0.126-2.109-0.126-2.913-0.15-3.59v-6.027h4.997v17.576h-4.218l-7.334-9.466l0.076,3.843
	v5.625h-5.021V36.882h4.219L127.555,46.499z"/>
<path fill="#182F57" d="M152.54,54.458h-14.062V36.882h13.71v4.168h-8.812v2.512h8.311v4.042h-8.311v2.662h9.165V54.458z"/>
<path fill="#182F57" d="M165.171,42.909l3.791-6.027h5.599v0.226l-6.979,10.346v7.006h-4.972v-7.006l-6.68-10.371v-0.201h5.6
	L165.171,42.909z"/>
</svg>
