<?xml version="1.0" encoding="utf-8"?>
<!-- Generator: Adobe Illustrator 21.1.0, SVG Export Plug-In . SVG Version: 6.00 Build 0)  -->
<svg version="1.1" id="Capa_1" xmlns="http://www.w3.org/2000/svg" xmlns:xlink="http://www.w3.org/1999/xlink" x="0px" y="0px"
	 viewBox="0 0 16.1 125.5" style="enable-background:new 0 0 16.1 125.5;" xml:space="preserve">
<style type="text/css">
	.st0{fill:#CC7400;}
	.st1{fill:#AA6100;}
	.st2{fill:#9A4C00;}
	.st3{fill:#C6C5CA;}
	.st4{fill:#ACABB1;}
	.st5{fill:#898890;}
	.st6{fill:#E0E0E2;}
	.st7{fill:#D8D7DA;}
	.st8{fill:#FFE477;}
	.st9{fill:#FFDA44;}
</style>
<path class="st0" d="M8.1,125.5L8.1,125.5c-1.7,0-3-1.3-3-3l0-89.8l6,0l0,89.8C11.1,124.1,9.7,125.5,8.1,125.5z"/>
<g>
	<path class="st1" d="M5.1,32.7l0,89.8c0,1.7,1.3,3,3,3l0,0l0-92.8L5.1,32.7z"/>
	<path class="st1" d="M9.8,87.6l-3.3,0c-1.5,0-2.7-1.2-2.7-2.7l0-14.6c0-1.5,1.2-2.7,2.7-2.7l3.3,0c1.5,0,2.7,1.2,2.7,2.7l0,14.6
		C12.5,86.4,11.3,87.6,9.8,87.6z"/>
</g>
<path class="st2" d="M8.1,84.9l0-14.6c0-1.3,0.9-2.4,2.2-2.7c-0.2,0-0.4-0.1-0.5-0.1l-3.3,0c-1.5,0-2.7,1.2-2.7,2.7l0,14.6
	c0,1.5,1.2,2.7,2.7,2.7l3.3,0c0.2,0,0.4,0,0.5-0.1C9.1,87.3,8.1,86.2,8.1,84.9z"/>
<polygon class="st3" points="11.1,40.8 5.1,40.8 5.1,25.6 11.1,25.6 "/>
<g>
	<polygon class="st4" points="8.1,25.6 5.1,25.6 5.1,40.8 8.1,40.8 	"/>
	<polygon class="st4" points="11.1,30.6 11.1,25.6 5.1,25.6 5.1,32.7 	"/>
	<polygon class="st4" points="5.1,35.8 5.1,40.8 11.1,40.8 11.1,33.8 	"/>
</g>
<g>
	<polygon class="st5" points="5.1,32.7 8.1,31.6 8.1,25.6 5.1,25.6 	"/>
	<polygon class="st5" points="5.1,40.8 8.1,40.8 8.1,34.8 5.1,35.8 	"/>
</g>
<path class="st6" d="M14.2,23.6c0,3.4-2.7,6.1-6.1,6.1C4.7,29.7,2,27,2,23.6c0-2.3,3-15.1,4.8-22.6c0.3-1.4,2.3-1.4,2.7,0
	C11.2,8.6,14.2,21.3,14.2,23.6z"/>
<path class="st7" d="M8.1,0C7.5,0,6.9,0.4,6.7,1.1C4.9,8.6,2,21.3,2,23.6c0,3.4,2.7,6.1,6.1,6.1L8.1,0z"/>
<path class="st8" d="M13,43.3l-9.9,0c-1.7,0-3.1-1.4-3.1-3.1l0,0c0-1.7,1.4-3.1,3.1-3.1l9.9,0c1.7,0,3.1,1.4,3.1,3.1l0,0
	C16.1,41.9,14.7,43.3,13,43.3z"/>
<path class="st9" d="M5.1,40.2L5.1,40.2c0-1.7,1.4-3.1,3.1-3.1l-5.1,0c-1.7,0-3.1,1.4-3.1,3.1l0,0c0,1.7,1.4,3.1,3.1,3.1l5.1,0
	C6.5,43.3,5.1,41.9,5.1,40.2z"/>
</svg>
