<?xml version="1.0" encoding="utf-8"?>
<!-- Generator: Adobe Illustrator 15.1.0, SVG Export Plug-In  -->
<!DOCTYPE svg PUBLIC "-//W3C//DTD SVG 1.1//EN" "http://www.w3.org/Graphics/SVG/1.1/DTD/svg11.dtd" [
	<!ENTITY ns_flows "http://ns.adobe.com/Flows/1.0/">
]>
<svg version="1.1"
	 xmlns="http://www.w3.org/2000/svg" xmlns:xlink="http://www.w3.org/1999/xlink" xmlns:a="http://ns.adobe.com/AdobeSVGViewerExtensions/3.0/"
	 x="0px" y="0px" width="108px" height="836px" viewBox="0.9995117 2.0004883 108 836"
	 overflow="visible" enable-background="new 0.9995117 2.0004883 108 836" xml:space="preserve">
<defs>
</defs>
<path fill="#CC7400" d="M53.8510742,838.3500977L53.8510742,838.3500977
	c-11.0527344-0.0019531-20.0141602-8.9628906-20.019043-20.0175781L33.722168,219.8496094l40.0410156,0.0078125
	l0.1132812,598.4692383C73.878418,829.3852539,64.9116211,838.3520508,53.8510742,838.3500977z"/>
<path fill="#AA6100" d="M33.722168,219.8496094l0.1098633,598.4770508
	c0.0048828,11.0566406,8.9702148,20.0205078,20.0249023,20.0214844l0,0l-0.1171875-618.4956055L33.722168,219.8496094z"/>
<path fill="#AA6100" d="M65.1459961,586.1469727l-22.1328125-0.0058594
	c-10.0639648-0.0019531-18.2241211-8.1582031-18.2260742-18.2246094l-0.0180664-97.5058594
	c-0.0019531-10.0683594,8.1621094-18.2324219,18.2285156-18.2304688l22.1347656,0.0039062
	c10.0625,0.0039062,18.2226562,8.1582031,18.2226562,18.2265625l0.0195312,97.5058594
	C83.378418,577.9848633,75.2143555,586.1489258,65.1459961,586.1469727z"/>
<path fill="#9A4C00" d="M54.081543,567.9165039l-0.0175781-97.5058594
	c-0.0019531-8.8378906,6.2929688-16.203125,14.6425781-17.8671875c-1.15625-0.2324219-2.3535156-0.3574219-3.578125-0.3574219
	l-22.1347656-0.0039062c-10.0644531-0.0019531-18.2246094,8.15625-18.2226562,18.2246094l0.0180664,97.5058594
	c0.0019531,10.0644531,8.1660156,18.2285156,18.2319336,18.2304688l22.1308594,0.0058594
	c1.2285156-0.0029297,2.4238281-0.125,3.5820312-0.3574219C60.3803711,584.1254883,54.0834961,576.7583008,54.081543,567.9165039z"
	/>
<polygon fill="#C6C5CA" points="73.7729492,274.2563477 33.7319336,274.2495117 33.7119141,172.6987305 73.753418,172.706543 "/>
<polygon fill="#ACABB1" points="53.7338867,172.7036133 33.7119141,172.6987305 33.7319336,274.2495117 53.7514648,274.2543945 "/>
<polygon fill="#ACABB1" points="73.7612305,206.0576172 73.753418,172.706543 33.7119141,172.6987305 33.722168,219.8496094 "/>
<polygon fill="#ACABB1" points="33.7260742,240.8964844 33.7319336,274.2495117 73.7729492,274.2563477 73.7631836,227.1044922 "/>
<polygon fill="#898890" points="33.722168,219.8496094 53.7416992,212.9536133 53.7338867,172.7036133 33.7119141,172.6987305 "/>
<polygon fill="#898890" points="33.7319336,274.2495117 53.7514648,274.2543945 53.7436523,234.0014648 33.7260742,240.8964844 "/>
<path fill="#E0E0E2" d="M94.5522461,157.6606445c0.0039062,22.4589844-18.2011719,40.6640625-40.6582031,40.6577148
	c-22.4589844-0.0048828-40.6699219-18.2148438-40.6738281-40.6738281
	c-0.0024414-15.6621094,19.7578125-100.6191406,31.71875-150.6088867
	c2.2441406-9.3842773,15.5898438-9.3789062,17.8378906,0.0029297
	C74.7553711,57.0356445,94.550293,141.9995117,94.5522461,157.6606445z"/>
<path fill="#D8D7DA" d="M53.6948242,0.0063477c-3.8457031,0.0620117-7.6542969,2.4033203-8.7617188,7.0302734
	C32.9741211,57.0263672,13.2128906,141.9833984,13.2158203,157.6464844
	c0.0053711,22.4067383,18.1333008,40.5830078,40.5200195,40.6699219L53.6948242,0.0063477z"/>
<path fill="#FFE477" d="M86.6694336,290.746582l-65.8432617-0.0117188
	c-11.4521484-0.0019531-20.8232422-9.3754883-20.8251953-20.8242188l0,0
	c-0.0019531-11.4609375,9.3730469-20.8359375,20.8339844-20.8330078l65.8442383,0.0107422
	c11.4492188,0.0029297,20.8203125,9.375,20.8242188,20.8251953l0,0
	C107.503418,281.3735352,98.128418,290.7485352,86.6694336,290.746582z"/>
<path fill="#FFDA44" d="M33.7299805,269.9067383L33.7299805,269.9067383
	c-0.0019531-11.4560547,9.3691406-20.8271484,20.8242188-20.8242188l-33.7290039-0.0058594
	C9.3691406,249.074707-0.0019531,258.4453125,0,269.9013672l0,0c0.0019531,11.4560547,9.3769531,20.831543,20.8330078,20.8334961
	l33.7299805,0.0058594C43.1069336,290.7368164,33.7338867,281.3623047,33.7299805,269.9067383z"/>
</svg>
