<?xml version="1.0" encoding="utf-8"?>
<!-- Generator: Adobe Illustrator 15.1.0, SVG Export Plug-In . SVG Version: 6.00 Build 0)  -->
<!DOCTYPE svg PUBLIC "-//W3C//DTD SVG 1.1//EN" "http://www.w3.org/Graphics/SVG/1.1/DTD/svg11.dtd">
<svg version="1.1" id="Capa_1" xmlns="http://www.w3.org/2000/svg" xmlns:xlink="http://www.w3.org/1999/xlink" x="0px" y="0px"
	 width="128px" height="872.5px" viewBox="376.5 0 128 872.5" enable-background="new 376.5 0 128 872.5" xml:space="preserve">
<path fill="#CC7400" d="M439.996,856.35L439.996,856.35c-11.053-0.002-20.014-8.963-20.018-20.018l-0.111-598.483l40.041,0.008
	l0.113,598.469C460.023,847.385,451.057,856.352,439.996,856.35z"/>
<g>
	<path fill="#AA6100" d="M419.867,237.849l0.111,598.477c0.004,11.057,8.969,20.021,20.025,20.023l0,0l-0.117-618.496
		L419.867,237.849z"/>
	<path fill="#AA6100" d="M451.291,604.146l-22.133-0.004c-10.064-0.002-18.223-8.16-18.225-18.225l-0.018-97.506
		c-0.002-10.068,8.162-18.232,18.23-18.23l22.133,0.004c10.064,0.002,18.223,8.158,18.223,18.225l0.02,97.506
		C469.523,595.984,461.359,604.148,451.291,604.146z"/>
</g>
<path fill="#9A4C00" d="M440.227,585.916l-0.018-97.506c-0.002-8.838,6.293-16.203,14.643-17.867
	c-1.158-0.232-2.354-0.357-3.58-0.357l-22.133-0.004c-10.066-0.002-18.225,8.156-18.223,18.223l0.018,97.506
	c0.002,10.066,8.166,18.23,18.232,18.232l22.131,0.004c1.227-0.002,2.424-0.125,3.582-0.357
	C446.525,602.125,440.229,594.758,440.227,585.916z"/>
<polygon fill="#C6C5CA" points="459.918,292.256 419.877,292.249 419.857,190.698 459.898,190.706 "/>
<g>
	<polygon fill="#ACABB1" points="439.879,190.703 419.857,190.698 419.877,292.249 439.896,292.254 	"/>
	<polygon fill="#ACABB1" points="459.906,224.057 459.898,190.706 419.857,190.698 419.867,237.849 	"/>
	<polygon fill="#ACABB1" points="419.871,258.896 419.877,292.249 459.918,292.256 459.908,245.104 	"/>
</g>
<g>
	<polygon fill="#898890" points="419.867,237.849 439.887,230.953 439.879,190.703 419.857,190.698 	"/>
	<polygon fill="#898890" points="419.877,292.249 439.896,292.254 439.889,252.001 419.871,258.896 	"/>
</g>
<path fill="#E0E0E2" d="M480.697,177.66c0.004,22.459-18.201,40.664-40.658,40.658c-22.459-0.005-40.67-18.215-40.674-40.674
	c-0.002-15.662,19.758-100.619,31.719-150.609c2.244-9.384,15.59-9.379,17.838,0.003C460.9,77.035,480.695,161.999,480.697,177.66z"
	/>
<path fill="#D8D7DA" d="M439.84,20.006c-3.846,0.062-7.654,2.403-8.762,7.03c-11.959,49.99-31.72,134.947-31.717,150.61
	c0.005,22.407,18.133,40.583,40.52,40.67L439.84,20.006z"/>
<path fill="#FFE477" d="M472.814,308.746l-65.842-0.012c-11.452-0.002-20.823-9.375-20.825-20.824l0,0
	c-0.002-11.461,9.372-20.836,20.833-20.833l65.844,0.011c11.449,0.003,20.822,9.375,20.824,20.825l0,0
	C493.648,299.373,484.273,308.748,472.814,308.746z"/>
<path fill="#FFDA44" d="M419.875,287.906L419.875,287.906c-0.002-11.456,9.369-20.827,20.824-20.824l-33.729-0.006
	c-11.456-0.002-20.827,9.369-20.825,20.825l0,0c0.002,11.456,9.377,20.83,20.833,20.833l33.73,0.006
	C429.252,308.736,419.879,299.362,419.875,287.906z"/>
</svg>
